# xmcd CD database file
#
# Track frame offsets:
#	150
#	10954
#	23421
#	35473
#	45370
#	56323
#	68034
#	79893
#	89597
#	98933
#	108098
#	116804
#	126633
#	137393
#	148445
#	157118
#	164659
#	174410
#	184912
#	191480
#
# Disc length: 2664 seconds
#
# Revision: 0
# Processed by: cddbd v1.5.2PL0 Copyright (c) Steve Scherf et al.
# Submitted via: CDex 1.51
#
DISCID=160a6614
DTITLE=Country - The Ultimate Country Collection [Disc 6]
DYEAR=1900
DGENRE=Country
TTITLE0=Cry! Cry! Cry!
TTITLE1=Folsom Prison Blues
TTITLE2=I Walk The Line
TTITLE3=Get Rhythm
TTITLE4=Don't Make Me Go
TTITLE5=Home Of the Blues
TTITLE6=Give Me Love To Rose
TTITLE7=Ballad Of A Teenage Queen
TTITLE8=It's Just Abour Time
TTITLE9=Luther Played The Boogie
TTITLE10=Katy Too
TTITLE11=Goodbye Little Darlin'
TTITLE12=I Love You Because
TTITLE13=mean Eyed Cat
TTITLE14=Life Gores On
TTITLE15=Hey Good Lookin'
TTITLE16=I Could Never Be Ashamed Of You
TTITLE17=I Just Thought You'd Like To Know
TTITLE18=Leave That Junk Alone
TTITLE19=I Forgot To Remenber To Forget
EXTD=
EXTT0=
EXTT1=
EXTT2=
EXTT3=
EXTT4=
EXTT5=
EXTT6=
EXTT7=
EXTT8=
EXTT9=
EXTT10=
EXTT11=
EXTT12=
EXTT13=
EXTT14=
EXTT15=
EXTT16=
EXTT17=
EXTT18=
EXTT19=
PLAYORDER=
